<?xml version="1.0" standalone="no"?>
<!DOCTYPE svg PUBLIC "-//W3C//DTD SVG 20010904//EN"
 "http://www.w3.org/TR/2001/REC-SVG-20010904/DTD/svg10.dtd">
<svg version="1.0" xmlns="http://www.w3.org/2000/svg"
 width="786.000000pt" height="786.000000pt" viewBox="0 0 786.000000 786.000000"
 preserveAspectRatio="xMidYMid meet">
<metadata>
Created by potrace 1.14, written by Peter Selinger 2001-2017
</metadata>
<g transform="translate(0.000000,786.000000) scale(0.100000,-0.100000)"
fill="#000000" stroke="none">
<path d="M1257 7684 c-1 -2 -81 -4 -177 -5 -198 -2 -259 -14 -397 -79 -241
-113 -410 -310 -505 -590 l-29 -85 0 -2978 0 -2978 22 -77 c90 -327 329 -570
654 -668 82 -24 109 -27 320 -33 127 -3 1452 -6 2945 -5 2676 2 2716 2 2806
22 296 65 527 249 658 523 25 51 56 135 68 184 l23 90 -1 2925 c-1 2897 -1
2926 -21 3015 -43 189 -131 347 -267 480 -99 96 -207 163 -342 211 -91 34
-111 37 -249 43 -137 6 -5502 11 -5508 5z"/>
</g>
</svg>
